<svg width="213" height="148" viewBox="0 0 213 148" fill="none" xmlns="http://www.w3.org/2000/svg">
<path d="M158 43.3C158 43.3 140.7 97.5 139.4 102.1C138.9 97.5 126.3 0.100006 126.3 0.100006C96.8 0.100006 81.1 21 72.8 43.3C72.8 43.3 51.8 97.7 50.1 102.3C50 98 46.8999 43.9 46.8999 43.9C45.0999 16.7 20.3 0.199997 0.199951 0.199997L24.4 147.8C55.3 147.7 71.9 126.8 80.6 104.6C80.6 104.6 99.0999 56.6 99.8999 54.4C100.1 56.5 113.2 147.8 113.2 147.8C144.1 147.8 160.8 128.2 169.8 106.8L213 0.100006C182.4 0.100006 166.3 21 158 43.3Z" fill="white"/>
</svg>
