<svg id="Layer_1" data-name="Layer 1" xmlns="http://www.w3.org/2000/svg" xmlns:xlink="http://www.w3.org/1999/xlink" viewBox="0 0 59.03 188.01"><defs><style>.cls-1{fill:none;}.cls-2{clip-path:url(#clip-path);}.cls-3{fill:#5101a0;}</style><clipPath id="clip-path" transform="translate(-0.42 -1)"><rect class="cls-1" x="0.42" y="1" width="59.03" height="188.01"/></clipPath></defs><title>Accel_logo</title><g class="cls-2"><path class="cls-3" d="M49.23,43.91a14.31,14.31,0,0,1-4.87,2.76l-.45.16-.55.16-.34.1-.63.16-.37.08c-.35.08-.72.15-1.09.21a3.42,3.42,0,0,0-.4.06l-.65.08a1.94,1.94,0,0,0-.43,0l-.55.05-6.75-28A11.86,11.86,0,0,0,28,21a12.52,12.52,0,0,0-5.46,4.85A19.55,19.55,0,0,0,19.7,33.6l-.07.47a22.76,22.76,0,0,0,0,5,20.72,20.72,0,0,0,5.36,11.81A19.6,19.6,0,0,0,36.13,57h.17c.28.05.55.09.86.12s.35,0,.55.06a2.73,2.73,0,0,1,.46,0,5.4,5.4,0,0,1,.8,0h1.29A19,19,0,0,0,47,55.74,20.61,20.61,0,0,0,59.45,37a21,21,0,0,0-2.18-9.75,20.29,20.29,0,0,0-6.39-7.52l-1.21.48C53.45,22.19,58.15,35.85,49.23,43.91ZM32.62,31.17l4,16.65c-.5,0-1,0-1.47-.07H35a4.61,4.61,0,0,1-.48,0l-.65-.08a19.69,19.69,0,0,1-3.07-.7,17.88,17.88,0,0,1-5.2-2.56A12.79,12.79,0,0,1,22,40.52a9.32,9.32,0,0,1-1.32-4.86q0-3.58,2-5.24a6.65,6.65,0,0,1,1.54-1C27.05,28.31,31.76,28.39,32.62,31.17Z" transform="translate(-0.42 -1)"/><path class="cls-3" d="M49.64,93.88c3.82,2,8.51,15.64-.4,23.7a14.66,14.66,0,0,1-5.28,2.9,21.59,21.59,0,0,1-6.81,1,21,21,0,0,1-6.36-.94,17.88,17.88,0,0,1-5.2-2.56A12.84,12.84,0,0,1,22,114.16a9.33,9.33,0,0,1-1.32-4.86q0-3.58,2-5.24a7.72,7.72,0,0,1,5.08-1.66,8.21,8.21,0,0,1,2.81.42l-2-8.5c-8,3.09-9.11,13.33-9.11,15.22-.26,16.22,15,25.12,27.43,19.88a20.65,20.65,0,0,0,12.47-18.75,21,21,0,0,0-2.18-9.75,20.28,20.28,0,0,0-6.39-7.52Z" transform="translate(-0.42 -1)"/><path class="cls-3" d="M49.64,57c3.82,2,8.51,15.64-.4,23.7A14.59,14.59,0,0,1,44,83.57a21.6,21.6,0,0,1-6.81,1,21,21,0,0,1-6.36-.94,17.87,17.87,0,0,1-5.2-2.55A12.93,12.93,0,0,1,22,77.26a9.32,9.32,0,0,1-1.32-4.86q0-3.57,2-5.24a7.72,7.72,0,0,1,5.08-1.69,8,8,0,0,1,2.81.43l-2-8.45c-8,3.07-9.1,13.31-9.1,15.18-.26,16.22,15,25.12,27.43,19.88A20.63,20.63,0,0,0,59.42,73.77,21,21,0,0,0,57.24,64a20.29,20.29,0,0,0-6.39-7.52Z" transform="translate(-0.42 -1)"/><path class="cls-3" d="M51.42,7.47H.42l2.92,12,0,.08H4.47c0-.42,1-4.05,3.5-4.05H51.24c5.46,0,6.25,3.86,6.42,6.47h.91V1h-.91C57.49,3.6,56.69,7.38,51.42,7.47Z" transform="translate(-0.42 -1)"/><path class="cls-3" d="M.42,152.52,3.33,164.4l0,.09h.88c0-.42,1.25-3.95,3.5-3C17.69,166,51,180.63,52.5,181.4c5,2.53,5,6.12,5.16,7.6h.91v-18.6h-.93s.08,7.06-3.61,7.06c-2.24,0-11.05-3.65-13.46-4.64l-5.91-24.23c.15-.06,15.94-6.58,19.27-6.58,3.6,0,3.71,5.79,3.71,6h.91V123.74h-.91a8.8,8.8,0,0,1-5.2,8.18C51,132.65.42,152.52.42,152.52Zm32.2-3.09,5.46,22.37c-.29-.12-28.81-12.29-29.53-12.63C9.74,158.66,32.62,149.44,32.62,149.44Z" transform="translate(-0.42 -1)"/></g></svg>