<svg width="270" height="101" viewBox="0 0 270 101" fill="none" xmlns="http://www.w3.org/2000/svg">
<path d="M45.7866 65V12.4217H37.1595V31.5216C33.7258 28.3454 29.2191 26.7573 23.6393 26.7573C18.403 26.7573 13.8963 28.6888 10.1192 32.5087C6.34214 36.3287 4.45361 40.9642 4.45361 46.3293C4.45361 51.7374 6.34214 56.3729 10.1621 60.1928C13.9392 64.0557 18.4459 65.9872 23.6393 65.9872C29.1762 65.9872 33.6829 64.3991 37.1595 61.2229V65H45.7866ZM25.0128 57.8751C21.665 57.8751 18.8322 56.8021 16.5574 54.6131C14.2396 52.467 13.0808 49.7201 13.0808 46.3722C13.0808 43.0244 14.2396 40.2775 16.5574 38.0885C18.8322 35.9424 21.665 34.8694 25.0128 34.8694C28.4036 34.8694 31.2793 35.9424 33.64 38.0885C36.0006 40.2775 37.1595 43.0244 37.1595 46.3722C37.1595 49.7201 36.0006 52.467 33.64 54.6131C31.2793 56.8021 28.4036 57.8751 25.0128 57.8751Z" fill="#1E1E1E"/>
<path d="M82.1363 47.1448C82.1363 40.7496 80.2477 35.7707 76.4707 32.1654C72.6936 28.56 68.1869 26.7573 62.9935 26.7573C57.4137 26.7573 52.8212 28.6458 49.2158 32.4229C45.6104 36.1999 43.8077 40.8354 43.8077 46.3722C43.8077 52.1666 45.6533 56.8879 49.3875 60.5362C53.1216 64.1845 57.8 65.9872 63.5085 65.9872C68.4874 65.9872 73.2516 64.8712 77.7583 62.6393L72.9082 55.772C69.9896 57.1884 66.8993 57.8751 63.5944 57.8751C57.6713 57.8751 53.9371 55.2569 52.4349 50.0635H82.1363V47.1448ZM69.3458 36.8438C71.2772 38.1743 72.6507 40.1058 73.4233 42.681H52.5207C54.7097 34.9552 63.766 32.8521 69.3458 36.8438ZM74.4963 11.6491H64.6674L58.6584 22.7227H67.1997L74.4963 11.6491Z" fill="#1E1E1E"/>
<path d="M106.799 27.7445L96.3262 55.4286L85.8534 27.7445H76.4537L91.1327 65H101.52L116.199 27.7445H106.799Z" fill="#1E1E1E"/>
<path d="M233.286 27.7445L222.813 55.4286L212.341 27.7445H202.941L218.35 66.8456C217.62 69.2063 216.504 70.7514 214.959 71.524C213.371 72.2537 211.268 72.64 208.65 72.64C207.362 72.64 206.503 72.597 206.031 72.4683V80.2799C206.589 80.3228 208.134 80.3657 210.667 80.3657C218.092 80.3657 223.286 76.6745 226.333 69.2921L242.686 27.7445H233.286Z" fill="#1E1E1E"/>
<path d="M162.036 65.0001V12.4218H153.409V65.0001H162.036Z" fill="#1E1E1E"/>
<path d="M176.091 65.0001V12.4218H167.464V65.0001H176.091Z" fill="#1E1E1E"/>
<path d="M148.4 65V27.7445H139.773V31.5216C136.339 28.3454 131.833 26.7573 126.253 26.7573C121.016 26.7573 116.51 28.6888 112.733 32.5087C108.956 36.3287 107.067 40.9642 107.067 46.3293C107.067 51.7374 108.956 56.3729 112.776 60.1928C116.553 64.0557 121.059 65.9872 126.253 65.9872C131.79 65.9872 136.296 64.3991 139.773 61.2229V65H148.4ZM127.626 57.8751C124.278 57.8751 121.446 56.8021 119.171 54.6131C116.853 52.467 115.694 49.7201 115.694 46.3722C115.694 43.0244 116.853 40.2775 119.171 38.0885C121.446 35.9424 124.278 34.8694 127.626 34.8694C131.017 34.8694 133.893 35.9424 136.253 38.0885C138.614 40.2775 139.773 43.0244 139.773 46.3722C139.773 49.7201 138.614 52.467 136.253 54.6131C133.893 56.8021 131.017 57.8751 127.626 57.8751Z" fill="#1E1E1E"/>
<path d="M211.132 47.1449C211.132 40.7497 209.244 35.7709 205.467 32.1655C201.69 28.5601 197.183 26.7574 191.99 26.7574C186.41 26.7574 181.817 28.646 178.212 32.423C174.607 36.2001 172.804 40.8355 172.804 46.3724C172.804 52.1667 174.649 56.888 178.384 60.5363C182.118 64.1846 186.796 65.9873 192.505 65.9873C197.483 65.9873 202.248 64.8714 206.754 62.6395L201.904 55.7721C198.986 57.1885 195.895 57.8752 192.59 57.8752C186.667 57.8752 182.933 55.257 181.431 50.0636H211.132V47.1449ZM198.342 36.8439C200.273 38.1744 201.647 40.1059 202.419 42.6812H181.517C183.706 34.9554 192.762 32.8522 198.342 36.8439Z" fill="#1E1E1E"/>
<path d="M257.018 28.382H258.28V23.4137H260.257V22H255V23.4137H257.018V28.382ZM268.313 23.9077V28.382H269.576V22H268.203L265.76 25.1292L263.317 22H261.931V28.382H263.207V23.9077L265.65 27.0095H265.87L268.313 23.9077Z" fill="#1E1E1E"/>
</svg>
