<?xml version="1.0" encoding="UTF-8"?>
<svg width="612px" height="170px" viewBox="0 0 612 170" version="1.1" xmlns="http://www.w3.org/2000/svg" xmlns:xlink="http://www.w3.org/1999/xlink">
    <title>43</title>
    <defs>
        <polygon id="path-1" points="0.6059 0.34 43.4389 0.34 43.4389 116.5549 0.6059 116.5549"></polygon>
    </defs>
    <g id="V3" stroke="none" stroke-width="1" fill="none" fill-rule="evenodd">
        <g id="SeedtoScale-Copy-3" transform="translate(-271.000000, -237.000000)">
            <g id="43" transform="translate(271.000000, 237.000000)">
                <path d="M6.7412,34.5492 L6.7412,21.8672 C6.7412,12.8792 12.6802,7.1002 21.6692,7.1002 C30.6582,7.1002 36.5972,13.0392 36.5972,21.8672 L36.5972,37.5982 L43.0182,37.5982 L43.0182,21.5472 C43.0182,9.1872 34.5112,1.0002 21.6692,1.0002 C8.8282,1.0002 0.3202,9.1872 0.3202,21.5472 L0.3202,34.8702 C0.3202,60.8742 36.9182,60.5532 36.9182,81.2582 L36.9182,96.0272 C36.9182,105.1752 30.8192,111.1162 21.6692,111.1162 C12.5202,111.1162 6.4202,105.1752 6.4202,96.0272 L6.4202,78.5312 L0.0002,78.5312 L0.0002,96.3472 C0.0002,108.8682 8.6672,117.2152 21.6692,117.2152 C34.6712,117.2152 43.3392,108.8682 43.3392,96.3472 L43.3392,80.9382 C43.3392,54.9352 6.7412,55.2552 6.7412,34.5492" id="Fill-1" fill="#5B00A6"></path>
                <polygon id="Fill-3" fill="#5B00A6" points="56.4072 117.2147 91.2712 117.2147 91.2712 110.9057 63.0472 110.9057 63.0472 61.4317 88.7812 61.4317 88.7812 55.1227 63.0472 55.1227 63.0472 7.3087 91.2712 7.3087 91.2712 1.0007 56.4072 1.0007"></polygon>
                <polygon id="Fill-5" fill="#5B00A6" points="102.1909 117.2147 137.8849 117.2147 137.8849 108.5817 111.4879 108.5817 111.4879 62.5937 135.5619 62.5937 135.5619 53.9607 111.4879 53.9607 111.4879 9.6327 137.8849 9.6327 137.8849 1.0007 102.1909 1.0007"></polygon>
                <path d="M186.2168,94.6356 C186.2168,103.1036 180.7378,108.5816 172.2708,108.5816 L158.3248,108.5816 L158.3248,9.6326 L172.2708,9.6326 C180.7378,9.6326 186.2168,15.1126 186.2168,23.5786 L186.2168,94.6356 Z M172.7678,1.0006 L149.0278,1.0006 L149.0278,117.2146 L172.7678,117.2146 C186.5488,117.2146 195.5128,108.4156 195.5128,95.1346 L195.5128,23.0806 C195.5128,9.7996 186.5488,1.0006 172.7678,1.0006 L172.7678,1.0006 Z" id="Fill-7" fill="#5B00A6"></path>
                <g id="Group-11" transform="translate(208.000000, 0.660000)">
                    <mask id="mask-2" fill="white">
                        <use xlink:href="#path-1"></use>
                    </mask>
                    <g id="Clip-10"></g>
                    <polygon id="Fill-9" fill="#5B00A6" mask="url(#mask-2)" points="0.6059 11.6299 15.8789 11.6299 15.8789 116.5549 28.1649 116.5549 28.1649 11.6299 43.4389 11.6299 43.4389 0.3399 0.6059 0.3399"></polygon>
                </g>
                <path d="M299.0639,94.743 C299.0639,101.645 294.4089,106.301 287.5059,106.301 C280.6039,106.301 275.9499,101.645 275.9499,94.743 L275.9499,23.473 C275.9499,16.571 280.6039,11.916 287.5059,11.916 C294.4089,11.916 299.0639,16.571 299.0639,23.473 L299.0639,94.743 Z M287.5059,1 C273.3809,1 264.0709,9.83 264.0709,23.153 L264.0709,94.903 C264.0709,108.387 273.3809,117.215 287.5059,117.215 C301.6319,117.215 310.9419,108.387 310.9419,94.903 L310.9419,23.153 C310.9419,9.83 301.6319,1 287.5059,1 L287.5059,1 Z" id="Fill-12" fill="#5B00A6"></path>
                <path d="M340.7265,35.6727 L340.7265,23.7947 C340.7265,18.1757 344.4185,14.4847 350.1975,14.4847 C355.8155,14.4847 359.5075,18.1757 359.5075,23.7947 L359.5075,39.2047 L374.2745,39.2047 L374.2745,23.7947 C374.2745,10.1497 364.6435,1.0007 350.1975,1.0007 C335.5905,1.0007 325.9595,10.1497 325.9595,23.7947 L325.9595,37.2767 C325.9595,63.1217 359.8285,64.0837 359.8285,80.2967 L359.8285,94.1007 C359.8285,99.8797 355.9755,103.7317 350.1975,103.7317 C344.2575,103.7317 340.4055,99.8797 340.4055,94.1007 L340.4055,77.0857 L325.6385,77.0857 L325.6385,94.2617 C325.6385,108.0657 335.4295,117.2147 350.1975,117.2147 C364.8035,117.2147 374.5955,108.0657 374.5955,94.2617 L374.5955,78.8527 C374.5955,52.8477 340.7265,51.8847 340.7265,35.6727" id="Fill-14" fill="#5B00A6"></path>
                <path d="M412.3339,1.0003 C397.7279,1.0003 387.9359,10.1493 387.9359,23.9553 L387.9359,94.2613 C387.9359,108.0653 397.7279,117.2143 412.3339,117.2143 C426.9409,117.2143 436.7329,108.0653 436.7329,94.2613 L436.7329,71.1473 L421.9659,71.1473 L421.9659,94.1003 C421.9659,99.8793 418.1129,103.7313 412.3339,103.7313 C406.5559,103.7313 402.7029,99.8793 402.7029,94.1003 L402.7029,24.1163 C402.7029,18.3363 406.5559,14.4843 412.3339,14.4843 C418.1129,14.4843 421.9659,18.3363 421.9659,24.1163 L421.9659,45.4643 L436.7329,45.4643 L436.7329,23.9553 C436.7329,10.1493 426.9409,1.0003 412.3339,1.0003" id="Fill-16" fill="#5B00A6"></path>
                <path d="M471.1118,72.7215 L475.5928,28.5595 L475.5928,19.0965 L478.7488,19.0965 L478.7488,28.5595 L483.2298,72.7215 L471.1118,72.7215 Z M463.4738,1.0005 L448.1998,117.2145 L466.6288,117.2145 L469.6168,87.9945 L484.8908,87.9945 L487.8798,117.2145 L507.1378,117.2145 L492.0298,1.0005 L463.4738,1.0005 Z" id="Fill-18" fill="#5B00A6"></path>
                <polygon id="Fill-20" fill="#5B00A6" points="536.52 1.0003 518.258 1.0003 518.258 117.2143 555.779 117.2143 555.779 100.6123 536.52 100.6123"></polygon>
                <polygon id="Fill-22" fill="#5B00A6" points="608.0141 20.0926 608.0141 1.0006 568.5011 1.0006 568.5011 117.2146 608.0141 117.2146 608.0141 98.1226 589.4191 98.1226 589.4191 67.5736 606.1871 67.5736 606.1871 48.9796 589.4191 48.9796 589.4191 20.0926"></polygon>
                <path d="M591.5639,141.4627 C590.6569,141.4117 589.6529,141.6837 588.7639,142.3357 C586.4219,144.0547 585.4829,146.5187 585.0619,149.2527 C584.9259,150.1287 585.4939,150.0717 586.0509,149.9357 C588.6729,149.2917 591.2929,148.6377 593.9109,147.9757 C594.3899,147.8547 594.7469,147.5507 595.0009,147.1157 C596.4419,144.6477 594.6239,141.4777 591.5639,141.4627 L591.5639,141.4627 Z M590.3269,163.9207 C588.0399,163.4357 585.8339,162.8037 583.9259,161.3367 C579.0099,157.5567 577.9049,150.5427 581.4589,145.3167 C584.8059,140.3937 591.7449,138.8687 596.9919,141.8987 C598.7239,142.8977 599.8139,144.3897 600.5089,146.2297 C600.9549,147.4087 600.7519,148.0497 599.3869,148.3637 C595.2079,149.3267 591.0519,150.3927 586.8889,151.4257 C585.0489,151.8827 584.9349,152.0637 585.3839,153.9267 C587.1709,161.3227 595.2159,161.6677 599.3549,158.8417 C599.7159,158.5957 600.0379,157.7217 600.5919,158.3887 C600.9879,158.8637 600.4059,159.3607 600.0689,159.7397 C598.1739,161.8697 595.8119,163.1727 592.9829,163.6327 C592.5179,163.7077 592.0599,163.8237 591.5989,163.9207 L590.3269,163.9207 Z" id="Fill-24" fill="#000000"></path>
                <path d="M548.6528,163.9207 C545.3518,163.2747 542.3698,162.0617 540.2748,159.2717 C537.5068,155.5847 536.9468,151.5717 538.7698,147.3597 C540.5198,143.3167 543.7098,140.9927 548.1168,140.4677 C551.9158,140.0147 555.2878,140.9607 557.7748,144.0087 C559.0348,145.5527 558.8408,145.9087 556.9548,146.3637 C556.6468,146.4387 556.3378,146.5107 556.0268,146.5767 C553.8818,147.0357 553.8698,147.0357 553.7408,144.8587 C553.5248,141.2227 550.3898,140.9067 547.9058,141.9097 C546.5958,142.4387 545.6618,143.4897 544.9868,144.7167 C542.9688,148.3847 542.8768,152.1967 544.5558,155.9547 C546.6428,160.6217 553.3888,161.9637 557.8398,158.7397 C558.1738,158.4977 558.5018,157.8127 558.9888,158.3297 C559.3888,158.7547 558.9118,159.2087 558.6128,159.5597 C556.6878,161.8147 554.2778,163.2187 551.3098,163.6407 C550.8438,163.7057 550.3858,163.8257 549.9248,163.9207 L548.6528,163.9207 Z" id="Fill-26" fill="#000000"></path>
                <path d="M569.6479,163.9207 C568.2289,163.5307 566.7639,163.3547 565.4069,162.6877 C560.3729,160.2127 557.6899,154.9237 558.8429,149.5987 C560.0099,144.2127 564.7659,140.2587 570.3759,140.3117 C573.5839,140.3407 576.5549,141.3347 578.6379,144.0077 C579.7659,145.4547 579.5869,145.8837 577.8499,146.3307 C577.6959,146.3697 577.5449,146.4267 577.3889,146.4507 C576.5569,146.5807 575.6579,147.2217 574.9409,146.8547 C574.1559,146.4527 574.7759,145.4287 574.6589,144.6837 C574.1779,141.6197 570.9649,140.3597 568.1669,142.2287 C565.7959,143.8107 564.7919,146.2277 564.3719,148.8997 C564.1509,150.2997 564.1949,151.7307 564.4759,153.1437 C565.8309,159.9497 572.9609,162.7567 578.7059,158.7517 C579.0359,158.5217 579.3609,157.8147 579.8479,158.3367 C580.2539,158.7717 579.7409,159.2217 579.4559,159.5667 C577.5919,161.8167 575.1679,163.1067 572.3029,163.6277 C571.8399,163.7117 571.3809,163.8217 570.9199,163.9207 L569.6479,163.9207 Z" id="Fill-28" fill="#000000"></path>
                <path d="M611.3217,163.2889 C607.8277,163.2949 604.3327,163.3089 600.8377,163.2979 C600.3907,163.2969 599.7067,163.4899 599.5847,162.9339 C599.4387,162.2709 600.1887,162.3759 600.5897,162.2269 C602.3397,161.5719 602.9367,160.6999 602.9657,158.3989 C603.0087,154.9789 602.9807,151.5579 602.9817,148.1369 C602.9827,143.9779 602.9497,139.8199 602.9977,135.6619 C603.0157,134.0989 602.8777,132.7599 601.1987,131.9949 C600.3567,131.6109 600.6777,131.0339 601.4137,130.8309 C603.1467,130.3519 604.8977,129.9369 606.6457,129.5149 C607.3727,129.3379 607.7667,129.6689 607.8097,130.3949 C607.8417,130.9199 607.8417,131.4469 607.8417,131.9739 C607.8437,140.8679 607.8357,149.7639 607.8487,158.6579 C607.8527,161.2559 608.7127,162.1369 611.3217,162.3399 L611.3217,163.2889 Z" id="Fill-30" fill="#000000"></path>
                <path d="M522.2055,135.2342 C522.0465,135.2132 521.8875,135.1922 521.7285,135.1722 C519.6775,140.1012 517.6165,145.0282 515.5835,149.9652 C515.2145,150.8612 515.8095,150.7952 516.3995,150.6482 C519.6795,149.8332 522.9585,149.0122 526.2395,148.2062 C526.8705,148.0512 527.1615,147.7592 526.8955,147.0892 C525.3285,143.1392 523.7675,139.1862 522.2055,135.2342 M535.0065,163.2962 C533.0985,163.2972 531.1905,163.3042 529.2825,163.2912 C528.9265,163.2892 528.4255,163.3342 528.3575,162.8822 C528.2835,162.3872 528.7975,162.4062 529.1375,162.3022 C531.4615,161.5922 531.7595,161.0992 531.1025,158.7552 C530.3355,156.0132 529.3155,153.3562 528.3125,150.6922 C527.9445,149.7142 527.4055,149.5772 526.4905,149.8142 C522.8505,150.7552 519.2045,151.6732 515.5485,152.5542 C514.6655,152.7672 514.1755,153.2782 513.8915,154.0742 C513.3075,155.7122 512.6665,157.3322 512.1545,158.9912 C511.5165,161.0612 512.0675,161.8542 514.2385,162.2812 C514.7045,162.3732 515.5455,162.1602 515.4605,162.8872 C515.3885,163.5062 514.5815,163.2922 514.0875,163.2962 C511.4905,163.3172 508.8935,163.3102 506.2975,163.2922 C505.9025,163.2892 505.3245,163.3742 505.2745,162.8202 C505.2325,162.3592 505.7675,162.3612 506.1125,162.2772 C507.7555,161.8742 508.7495,160.7312 509.3805,159.2842 C512.9825,151.0212 516.5395,142.7392 520.1415,134.4762 C520.6175,133.3832 520.5715,132.6062 519.4235,131.9802 C518.5925,131.5262 518.8865,131.0202 519.6305,130.8162 C521.3655,130.3402 523.1185,129.9242 524.8685,129.5032 C526.0075,129.2282 526.1785,130.1502 526.4525,130.8602 C528.3135,135.6782 530.1515,140.5052 532.0055,145.3262 C533.6875,149.7042 535.3865,154.0772 537.0695,158.4552 C537.8065,160.3712 538.9065,161.8992 541.0955,162.3182 C541.4035,162.3772 541.8195,162.4542 541.7765,162.8342 C541.7235,163.3002 541.2445,163.2842 540.8885,163.2872 C538.9285,163.3002 536.9675,163.2942 535.0065,163.2962" id="Fill-32" fill="#000000"></path>
                <path d="M383.4013,160.1278 C383.0763,160.6148 382.6743,161.0758 382.1963,161.5088 C381.7173,161.9418 381.1713,162.3168 380.5573,162.6328 C379.9433,162.9488 379.2803,163.1968 378.5673,163.3778 C377.8543,163.5578 377.1003,163.6488 376.3063,163.6488 C374.8793,163.6488 373.5573,163.3958 372.3383,162.8908 C371.1203,162.3848 370.0643,161.6858 369.1703,160.7918 C368.2763,159.8978 367.5763,158.8378 367.0713,157.6088 C366.5663,156.3818 366.3133,155.0368 366.3133,153.5738 C366.3133,152.1118 366.5663,150.7678 367.0713,149.5388 C367.5763,148.3118 368.2763,147.2508 369.1703,146.3568 C370.0643,145.4638 371.1203,144.7648 372.3383,144.2588 C373.5573,143.7528 374.8793,143.4998 376.3063,143.4998 C377.4973,143.4998 378.6893,143.7348 379.8803,144.2038 C381.0723,144.6738 382.0913,145.4498 382.9413,146.5328 L381.2343,147.8068 C381.0353,147.4988 380.7653,147.1918 380.4223,146.8858 C380.0793,146.5788 379.6863,146.3078 379.2443,146.0728 C378.8013,145.8388 378.3273,145.6488 377.8223,145.5038 C377.3173,145.3598 376.8113,145.2878 376.3063,145.2878 C375.0783,145.2878 373.9773,145.5138 373.0023,145.9648 C372.0273,146.4158 371.2013,147.0208 370.5243,147.7788 C369.8473,148.5368 369.3283,149.4178 368.9663,150.4198 C368.6053,151.4218 368.4253,152.4738 368.4253,153.5738 C368.4253,154.6758 368.6053,155.7278 368.9663,156.7298 C369.3283,157.7318 369.8473,158.6108 370.5243,159.3698 C371.2013,160.1278 372.0273,160.7328 373.0023,161.1848 C373.9773,161.6358 375.0783,161.8608 376.3063,161.8608 C376.8113,161.8608 377.3123,161.8158 377.8093,161.7258 C378.3053,161.6358 378.7933,161.4818 379.2713,161.2658 C379.7493,161.0488 380.2013,160.7558 380.6253,160.3858 C381.0493,160.0158 381.4423,159.5508 381.8033,158.9898 L383.4013,160.1278 Z" id="Fill-34" fill="#000000"></path>
                <path d="M395.1811,163.161 C395.1451,162.818 395.1221,162.479 395.1141,162.145 C395.1041,161.811 395.1001,161.474 395.1001,161.13 L395.0461,161.13 C394.8471,161.474 394.5941,161.789 394.2871,162.078 C393.9801,162.367 393.6381,162.615 393.2591,162.822 C392.8791,163.03 392.4771,163.192 392.0541,163.31 C391.6291,163.428 391.2091,163.486 390.7941,163.486 C389.1691,163.486 387.9681,163.057 387.1921,162.2 C386.4161,161.343 386.0281,160.119 386.0281,158.53 L386.0281,150.487 L387.8151,150.487 L387.8151,157.501 C387.8151,158.205 387.8691,158.828 387.9781,159.37 C388.0861,159.911 388.2711,160.367 388.5331,160.737 C388.7941,161.107 389.1461,161.388 389.5891,161.577 C390.0311,161.766 390.5861,161.861 391.2541,161.861 C391.3451,161.861 391.5971,161.825 392.0131,161.753 C392.4281,161.681 392.8661,161.482 393.3261,161.157 C393.7861,160.832 394.1971,160.345 394.5581,159.694 C394.9191,159.045 395.1001,158.142 395.1001,156.986 L395.1001,150.487 L396.8881,150.487 L396.8881,160.372 C396.8881,160.715 396.9011,161.148 396.9281,161.672 C396.9551,162.195 396.9861,162.691 397.0231,163.161 L395.1811,163.161 Z" id="Fill-36" fill="#000000"></path>
                <path d="M401.2748,154.4413 C401.2748,153.8813 401.2608,153.3123 401.2338,152.7353 C401.2068,152.1573 401.1838,151.4083 401.1668,150.4873 L402.9268,150.4873 L402.9268,152.8423 L402.9808,152.8423 C403.1068,152.5013 403.2878,152.1703 403.5228,151.8543 C403.7568,151.5393 404.0408,151.2543 404.3758,151.0023 C404.7098,150.7493 405.0968,150.5453 405.5398,150.3923 C405.9818,150.2393 406.4828,150.1623 407.0428,150.1623 C407.5478,150.1623 407.9908,150.2163 408.3698,150.3243 L408.0178,152.0853 C407.7828,151.9953 407.4398,151.9493 406.9888,151.9493 C406.3018,151.9493 405.7158,152.0813 405.2288,152.3413 C404.7408,152.6043 404.3348,152.9383 404.0098,153.3443 C403.6848,153.7503 403.4448,154.1883 403.2918,154.6573 C403.1388,155.1273 403.0618,155.5783 403.0618,156.0113 L403.0618,163.1613 L401.2748,163.1613 L401.2748,154.4413 Z" id="Fill-38" fill="#000000"></path>
                <path d="M417.2787,156.8514 C416.8277,156.8514 416.2627,156.8734 415.5867,156.9184 C414.9087,156.9634 414.2587,157.0724 413.6367,157.2444 C413.0137,157.4154 412.4807,157.6814 412.0387,158.0424 C411.5957,158.4044 411.3747,158.9004 411.3747,159.5324 C411.3747,159.9484 411.4607,160.3034 411.6327,160.6014 C411.8037,160.8994 412.0337,161.1434 412.3227,161.3324 C412.6117,161.5224 412.9327,161.6584 413.2847,161.7394 C413.6367,161.8204 413.9927,161.8614 414.3537,161.8614 C415.0037,161.8614 415.5687,161.7524 416.0467,161.5364 C416.5247,161.3194 416.9267,161.0264 417.2517,160.6564 C417.5767,160.2864 417.8157,159.8524 417.9687,159.3564 C418.1227,158.8604 418.1997,158.3314 418.1997,157.7724 L418.1997,156.8514 L417.2787,156.8514 Z M418.1997,155.3884 L418.1997,155.0634 C418.1997,152.8794 417.1157,151.7874 414.9497,151.7874 C413.4687,151.7874 412.1777,152.2844 411.0767,153.2764 L409.9937,152.0034 C411.1857,150.7764 412.9727,150.1624 415.3557,150.1624 C415.9697,150.1624 416.5607,150.2524 417.1297,150.4324 C417.6987,150.6134 418.1907,150.8894 418.6057,151.2584 C419.0207,151.6284 419.3547,152.0944 419.6077,152.6534 C419.8607,153.2134 419.9867,153.8814 419.9867,154.6574 L419.9867,160.3174 C419.9867,160.8044 420.0087,161.3154 420.0547,161.8474 C420.0997,162.3804 420.1497,162.8184 420.2037,163.1614 L418.4697,163.1614 C418.4167,162.8544 418.3757,162.5204 418.3487,162.1594 C418.3207,161.7974 418.3077,161.4464 418.3077,161.1024 L418.2537,161.1024 C417.7297,161.9524 417.1117,162.5614 416.3987,162.9304 C415.6857,163.3004 414.8147,163.4864 413.7857,163.4864 C413.2257,163.4864 412.6837,163.4094 412.1607,163.2554 C411.6367,163.1024 411.1717,162.8684 410.7657,162.5514 C410.3597,162.2364 410.0347,161.8474 409.7907,161.3874 C409.5477,160.9264 409.4247,160.3894 409.4247,159.7764 C409.4247,158.7474 409.6917,157.9394 410.2237,157.3524 C410.7567,156.7654 411.4247,156.3284 412.2277,156.0394 C413.0307,155.7494 413.8887,155.5694 414.8007,155.4974 C415.7127,155.4244 416.5477,155.3884 417.3057,155.3884 L418.1997,155.3884 Z" id="Fill-40" fill="#000000"></path>
                <path d="M430.684,152.1121 L427.028,152.1121 L427.028,159.5871 C427.028,160.0551 427.073,160.4391 427.163,160.7371 C427.254,161.0351 427.38,161.2651 427.542,161.4271 C427.705,161.5911 427.899,161.7031 428.125,161.7661 C428.351,161.8301 428.599,161.8611 428.87,161.8611 C429.176,161.8611 429.493,161.8161 429.817,161.7251 C430.142,161.6351 430.44,161.5181 430.711,161.3741 L430.792,163.0251 C430.124,163.3321 429.321,163.4861 428.382,163.4861 C428.039,163.4861 427.682,163.4401 427.312,163.3501 C426.942,163.2591 426.604,163.0891 426.297,162.8361 C425.99,162.5841 425.737,162.2401 425.538,161.8061 C425.34,161.3741 425.241,160.8041 425.241,160.1001 L425.241,152.1121 L422.559,152.1121 L422.559,150.4871 L425.241,150.4871 L425.241,146.9121 L427.028,146.9121 L427.028,150.4871 L430.684,150.4871 L430.684,152.1121 Z" id="Fill-42" fill="#000000"></path>
                <path d="M442.9785,155.8495 C442.9785,154.6395 442.6175,153.6605 441.8955,152.9115 C441.1735,152.1615 440.1625,151.7875 438.8625,151.7875 C438.2845,151.7875 437.7255,151.9005 437.1835,152.1255 C436.6415,152.3515 436.1675,152.6535 435.7615,153.0335 C435.3555,153.4115 435.0305,153.8455 434.7865,154.3325 C434.5425,154.8205 434.4205,155.3265 434.4205,155.8495 L442.9785,155.8495 Z M434.3675,157.3115 C434.4205,157.9435 434.5745,158.5395 434.8275,159.0985 C435.0805,159.6595 435.4135,160.1415 435.8295,160.5475 C436.2445,160.9535 436.7235,161.2745 437.2645,161.5085 C437.8065,161.7445 438.3925,161.8615 439.0245,161.8615 C439.9815,161.8615 440.8075,161.6405 441.5025,161.1985 C442.1975,160.7555 442.7255,160.2455 443.0865,159.6675 L444.4685,160.8045 C443.7095,161.7625 442.8745,162.4485 441.9635,162.8635 C441.0515,163.2785 440.0715,163.4865 439.0245,163.4865 C438.0855,163.4865 437.2145,163.3195 436.4115,162.9855 C435.6075,162.6515 434.9175,162.1865 434.3395,161.5905 C433.7615,160.9955 433.3065,160.2905 432.9725,159.4785 C432.6385,158.6655 432.4715,157.7815 432.4715,156.8245 C432.4715,155.8675 432.6335,154.9825 432.9585,154.1695 C433.2835,153.3575 433.7345,152.6535 434.3125,152.0575 C434.8905,151.4615 435.5675,150.9965 436.3435,150.6625 C437.1205,150.3285 437.9595,150.1625 438.8625,150.1625 C439.8195,150.1625 440.6765,150.3335 441.4355,150.6765 C442.1935,151.0195 442.8295,151.4755 443.3445,152.0435 C443.8585,152.6135 444.2515,153.2815 444.5225,154.0485 C444.7925,154.8165 444.9285,155.6325 444.9285,156.4985 L444.9285,157.3115 L434.3675,157.3115 Z" id="Fill-44" fill="#000000"></path>
                <path d="M449.2612,156.8241 C449.2612,157.5281 449.3732,158.1871 449.5992,158.8011 C449.8252,159.4151 450.1452,159.9481 450.5612,160.3981 C450.9762,160.8501 451.4772,161.2071 452.0642,161.4691 C452.6502,161.7301 453.3142,161.8611 454.0542,161.8611 C454.7762,161.8611 455.4492,161.7301 456.0722,161.4691 C456.6952,161.2071 457.2322,160.8501 457.6832,160.3981 C458.1342,159.9481 458.4862,159.4151 458.7392,158.8011 C458.9922,158.1871 459.1182,157.5281 459.1182,156.8241 C459.1182,156.1201 458.9922,155.4611 458.7392,154.8471 C458.4862,154.2331 458.1342,153.7011 457.6832,153.2491 C457.2322,152.7991 456.6952,152.4411 456.0722,152.1791 C455.4492,151.9181 454.7762,151.7871 454.0542,151.7871 C453.3142,151.7871 452.6502,151.9181 452.0642,152.1791 C451.4772,152.4411 450.9762,152.7991 450.5612,153.2491 C450.1452,153.7011 449.8252,154.2331 449.5992,154.8471 C449.3732,155.4611 449.2612,156.1201 449.2612,156.8241 L449.2612,156.8241 Z M460.8242,163.1611 L459.0372,163.1611 L459.0372,161.0491 L458.9832,161.0491 C458.6942,161.4821 458.3512,161.8521 457.9542,162.1591 C457.5562,162.4671 457.1412,162.7191 456.7082,162.9171 C456.2752,163.1161 455.8282,163.2601 455.3672,163.3501 C454.9072,163.4401 454.4692,163.4861 454.0542,163.4861 C453.0612,163.4861 452.1542,163.3191 451.3332,162.9851 C450.5112,162.6511 449.8032,162.1861 449.2072,161.5911 C448.6112,160.9951 448.1462,160.2911 447.8122,159.4781 C447.4782,158.6661 447.3112,157.7811 447.3112,156.8241 C447.3112,155.8671 447.4782,154.9821 447.8122,154.1701 C448.1462,153.3571 448.6112,152.6531 449.2072,152.0571 C449.8032,151.4621 450.5112,150.9971 451.3332,150.6631 C452.1542,150.3291 453.0612,150.1621 454.0542,150.1621 C454.4692,150.1621 454.9072,150.2071 455.3672,150.2981 C455.8282,150.3871 456.2752,150.5321 456.7082,150.7301 C457.1412,150.9291 457.5562,151.1821 457.9542,151.4891 C458.3512,151.7971 458.6942,152.1661 458.9832,152.5991 L459.0372,152.5991 L459.0372,142.6871 L460.8242,142.6871 L460.8242,163.1611 Z" id="Fill-46" fill="#000000"></path>
                <path d="M483.8168,156.8241 C483.8168,156.1201 483.7038,155.4611 483.4778,154.8471 C483.2528,154.2331 482.9318,153.7011 482.5168,153.2491 C482.1008,152.7991 481.5998,152.4411 481.0138,152.1791 C480.4268,151.9181 479.7628,151.7871 479.0238,151.7871 C478.2828,151.7871 477.6058,151.9181 476.9918,152.1791 C476.3788,152.4411 475.8458,152.7991 475.3948,153.2491 C474.9428,153.7011 474.5908,154.2331 474.3378,154.8471 C474.0858,155.4611 473.9588,156.1201 473.9588,156.8241 C473.9588,157.5281 474.0858,158.1871 474.3378,158.8011 C474.5908,159.4151 474.9428,159.9481 475.3948,160.3981 C475.8458,160.8501 476.3788,161.2071 476.9918,161.4691 C477.6058,161.7301 478.2828,161.8611 479.0238,161.8611 C479.7628,161.8611 480.4268,161.7301 481.0138,161.4691 C481.5998,161.2071 482.1008,160.8501 482.5168,160.3981 C482.9318,159.9481 483.2528,159.4151 483.4778,158.8011 C483.7038,158.1871 483.8168,157.5281 483.8168,156.8241 L483.8168,156.8241 Z M472.2528,142.6871 L474.0408,142.6871 L474.0408,152.5991 L474.0948,152.5991 C474.3828,152.1661 474.7268,151.7971 475.1238,151.4891 C475.5208,151.1821 475.9358,150.9291 476.3688,150.7301 C476.8028,150.5321 477.2498,150.3871 477.7098,150.2981 C478.1708,150.2071 478.6078,150.1621 479.0238,150.1621 C480.0158,150.1621 480.9228,150.3291 481.7448,150.6631 C482.5668,150.9971 483.2748,151.4621 483.8708,152.0571 C484.4668,152.6531 484.9308,153.3571 485.2658,154.1701 C485.5998,154.9821 485.7668,155.8671 485.7668,156.8241 C485.7668,157.7811 485.5998,158.6661 485.2658,159.4781 C484.9308,160.2911 484.4668,160.9951 483.8708,161.5911 C483.2748,162.1861 482.5668,162.6511 481.7448,162.9851 C480.9228,163.3191 480.0158,163.4861 479.0238,163.4861 C478.6078,163.4861 478.1708,163.4401 477.7098,163.3501 C477.2498,163.2601 476.8028,163.1161 476.3688,162.9171 C475.9358,162.7191 475.5208,162.4671 475.1238,162.1591 C474.7268,161.8521 474.3828,161.4821 474.0948,161.0491 L474.0408,161.0491 L474.0408,163.1611 L472.2528,163.1611 L472.2528,142.6871 Z" id="Fill-48" fill="#000000"></path>
                <path d="M493.5117,160.9676 L497.3847,150.4876 L499.5507,150.4876 L493.2137,166.4646 C492.8347,167.4406 492.3507,168.2156 491.7647,168.7936 C491.1777,169.3716 490.3337,169.6596 489.2327,169.6596 C488.9617,169.6596 488.6867,169.6516 488.4067,169.6336 C488.1267,169.6146 487.8517,169.5616 487.5807,169.4706 L487.7707,167.7386 C488.1497,167.9366 488.6007,168.0356 489.1247,168.0356 C489.7567,168.0356 490.2527,167.8366 490.6137,167.4406 C490.9747,167.0426 491.2907,166.4826 491.5617,165.7606 L492.4827,163.3226 L487.2827,150.4876 L489.5307,150.4876 L493.5117,160.9676 Z" id="Fill-50" fill="#000000"></path>
            </g>
        </g>
    </g>
</svg>