
<svg width="77px" height="21px" viewBox="0 0 77 21" version="1.1" xmlns="http://www.w3.org/2000/svg" xmlns:xlink="http://www.w3.org/1999/xlink">
    <defs>
        <polygon id="path-1" points="0 0.2241 13.9659 0.2241 13.9659 16.9901 0 16.9901"></polygon>
        <polygon id="path-3" points="0.1422 0.105125 1.8075 0.105125 1.8075 1.806875 0.1422 1.806875"></polygon>
        <polygon id="path-5" points="0 21 76 21 76 0 0 0"></polygon>
    </defs>
    <g id="Aur_dsktp_home" stroke="none" stroke-width="1" fill="none" fill-rule="evenodd">
        <g id="Mobile" transform="translate(-122.000000, -17.000000)">
            <g id="Aura-Logo" transform="translate(122.000000, 17.000000)">
                <g id="Group-3" transform="translate(0.000000, 4.000000)">
                    <mask id="mask-2" fill="white">
                        <use xlink:href="#path-1"></use>
                    </mask>
                    <g id="Clip-2"></g>
                    <path d="M3.8249,10.7081 L4.5539,9.0541 C4.7939,8.3751 5.0159,7.7631 5.2149,7.2341 C5.4139,6.7031 5.5909,6.2281 5.7459,5.8081 C5.8999,5.3871 6.0449,4.9991 6.1779,4.6441 C6.3119,4.2851 6.4459,3.9391 6.5789,3.6051 L6.9689,2.6291 L7.3409,3.6121 C7.7259,4.6351 8.0789,5.5331 8.4169,6.3591 C8.7579,7.1981 9.1099,8.1041 9.4629,9.0511 L10.1889,10.7001 L12.8739,16.9011 L13.9659,16.9041 C13.3939,15.5211 12.7599,14.0221 12.1419,12.5661 C11.5059,11.0621 10.8459,9.5061 10.2519,8.0631 C9.1199,5.3211 8.0159,2.6881 6.9639,0.2241 L-0.0001,16.9901 L1.1729,16.9721 C1.5839,16.0061 2.0089,15.0081 2.4479,13.9771 C2.9239,12.8591 3.3829,11.7701 3.8249,10.7081" id="Fill-1" fill="#000000" mask="url(#mask-2)"></path>
                </g>
                <path d="M21.0727164,19.055037 C21.7157926,19.6415969 22.4761727,20.1186247 23.3308147,20.4728127 C24.1781252,20.822906 25.0935139,21 26.0518441,21 C26.9871325,21 27.8920476,20.822906 28.7372634,20.4728127 C29.5908581,20.1196483 30.3365751,19.6446679 30.9555622,19.061179 C31.5724546,18.4797375 32.0741378,17.7785271 32.4469963,16.979045 C32.8135707,16.1857048 33,15.3340158 33,14.4475221 L33,4 L31.8719982,4 L31.8719982,14.4475221 C31.8719982,15.2070814 31.7190843,15.922623 31.4174459,16.5746974 C31.1179023,17.2226772 30.7010548,17.7979768 30.1784245,18.2862648 C29.6547468,18.7755766 29.0326176,19.1635455 28.3267001,19.4419823 C27.6207825,19.7214428 26.8614498,19.8637322 26.0696491,19.8637322 C25.2527119,19.8637322 24.4818583,19.7214428 23.7748934,19.4419823 C23.0731653,19.1645692 22.4416099,18.7776239 21.8969851,18.2924068 C21.3502656,17.8051424 20.9135184,17.2298428 20.6024538,16.5798157 C20.2871998,15.928765 20.1280018,15.211176 20.1280018,14.4475221 L20.1280018,4 L19,4 L19,14.4475221 C19,15.3350394 19.1853819,16.1867285 19.5530037,16.979045 C19.9216728,17.7754561 20.4338296,18.4746191 21.0727164,19.055037" id="Fill-4" fill="#000000"></path>
                <path d="M42.0335662,13.2221555 L42.0335662,5.06562594 L45.7783268,5.06562594 C46.33038,5.06562594 46.8650537,5.17280096 47.3680354,5.38510958 C47.8699949,5.59741819 48.3106151,5.89546683 48.6755836,6.27211048 C49.0395297,6.64569198 49.3298688,7.08561993 49.5414892,7.57964575 C49.7551542,8.08183729 49.8635202,8.6248574 49.8635202,9.19441609 C49.8635202,9.74356049 49.7551542,10.2702492 49.5404669,10.7622336 C49.3278242,11.2460522 49.0354404,11.675773 48.670472,12.0381267 C48.3075481,12.3994596 47.8689726,12.6903633 47.3670131,12.9026719 C46.866076,13.1149805 46.33038,13.2221555 45.7783268,13.2221555 L42.0335662,13.2221555 Z M51.5871528,21 L53,21 C52.8762992,20.835665 52.7464645,20.6621435 52.6104958,20.4784149 C52.2721077,20.0272591 51.9163401,19.5587511 51.543193,19.072891 C51.170046,18.5860102 50.8060998,18.1093365 50.4544215,17.6449114 C50.0945647,17.1682378 49.7919577,16.7762834 49.528199,16.448634 L47.592946,13.978505 L48.0959278,13.7672171 C49.0364628,13.3711798 49.7203953,12.7801861 50.1875958,11.9636145 C50.6588857,11.1388772 50.8970864,10.1998199 50.8970864,9.17196037 C50.8970864,8.50951666 50.765207,7.86340438 50.5055376,7.25097568 C50.2407565,6.6324227 49.8798773,6.07511258 49.4300562,5.59537676 C48.9822798,5.11870309 48.4363605,4.72776944 47.8086556,4.43584509 C47.188107,4.14596217 46.5051968,4 45.7783268,4 L41,4 L41,21 L42.0335662,21 L42.0335662,14.3551486 L46.4244335,14.3551486 L51.5871528,21 Z" id="Fill-6" fill="#000000"></path>
                <path d="M62.7839462,14.644167 L63.513092,12.964578 C63.750465,12.2852279 63.9728144,11.6627442 64.1761339,11.1164208 C64.3744456,10.5772057 64.5527257,10.0948569 64.7069681,9.66835912 C64.862212,9.24084583 65.0074403,8.84684308 65.1406496,8.48635088 C65.2748605,8.12179679 65.4080698,7.77044382 65.5422807,7.43127651 L65.9328945,6.44017681 L66.3044785,7.4383848 C66.691086,8.47721164 67.04364,9.38910459 67.382172,10.2278836 C67.7247103,11.0798638 68.0762627,11.9998805 68.4308199,12.9615316 L69.1579625,14.6360432 L71.8461869,20.9329789 L73,20.9380563 C72.4421233,19.5732632 71.8111318,18.0947375 71.197167,16.6598769 C70.5261125,15.0879278 69.8320217,13.4641897 69.2210617,11.9582462 C68.08728,9.17382474 66.9815424,6.50110507 65.9288883,4 L59,21 L60.1297754,21 C60.5404207,20.021086 60.965088,19.0096768 61.4047789,17.9637417 C61.8805265,16.8284451 62.340249,15.7225972 62.7839462,14.644167" id="Fill-8" fill="#000000"></path>
                <polygon id="Fill-10" fill="#000000" points="73.8350755 4.22124284 73 4.22124284 73 4 75 4 75 4.22124284 74.1626016 4.22124284 74.1626016 6 73.8350755 6"></polygon>
                <g id="Group-14" transform="translate(75.000000, 4.000000)">
                    <mask id="mask-4" fill="white">
                        <use xlink:href="#path-3"></use>
                    </mask>
                    <g id="Clip-13"></g>
                    <polygon id="Fill-12" fill="#000000" mask="url(#mask-4)" points="1.5957 0.390875 1.0167 1.806875 0.9297 1.806875 0.3537 0.390875 0.3537 1.806875 0.1422 1.806875 0.1422 0.105125 0.4452 0.105125 0.9732 1.401125 1.5042 0.105125 1.80795 0.105125 1.80795 1.806875 1.5957 1.806875"></polygon>
                </g>
                <mask id="mask-6" fill="white">
                    <use xlink:href="#path-5"></use>
                </mask>
                <g id="Clip-16"></g>
                <polygon id="Fill-15" fill="#000000" mask="url(#mask-6)" points="1 1 13 1 13 0 1 0"></polygon>
            </g>
        </g>
    </g>
</svg>
