<?xml version="1.0" standalone="no"?>
<!DOCTYPE svg PUBLIC "-//W3C//DTD SVG 1.1//EN" "http://www.w3.org/Graphics/SVG/1.1/DTD/svg11.dtd">
<svg xmlns="http://www.w3.org/2000/svg" width="906" height="360" viewBox="0 0 906 360" fill="none">
<path fill-rule="evenodd" clip-rule="evenodd" d="M72 144L144 72H288L360 144L288 216L216 288L72 144ZM288 216L216 144L288 72V216Z" fill="#0D61FF"/>
<path d="M671.25 251.996H700.762V189.106C700.762 174.655 709.92 167.328 721.318 167.328C731.698 167.328 738.007 173.434 738.007 187.071V251.996H767.315V189.106C767.315 174.655 776.474 167.328 787.871 167.328C798.455 167.328 804.561 173.434 804.561 187.071V251.996H833.869V183.814C833.869 155.524 818.604 143.109 798.862 143.109C785.429 143.109 771.589 148.807 763.041 161.63C757.953 149.011 747.369 143.109 733.326 143.109C717.451 143.109 706.053 151.86 700.762 161.833V145.551H671.25V251.996Z" fill="#17181A"/>
<path d="M606.171 254.256C635.276 254.256 653.593 241.434 657.053 218.435H629.17C627.338 227.39 620.622 233.293 606.986 233.293C590.907 233.293 581.341 223.116 580.527 205.409H657.257V197.268C657.257 159.209 632.834 143.13 605.357 143.13C574.421 143.13 550.608 164.907 550.608 198.489V200.118C550.608 234.107 574.014 254.256 606.171 254.256ZM580.934 187.295C583.173 172.234 592.128 163.483 605.357 163.483C619.401 163.483 627.542 171.217 628.56 187.295H580.934Z" fill="#17181A"/>
<path d="M470.084 254.25C513.639 254.25 538.469 228.402 538.469 189.528V174.06H473.137V198.076H505.905C505.294 214.766 495.322 228.809 470.898 228.809C442.404 228.809 430.396 208.66 430.396 180.573V178.945C430.396 149.23 445.254 130.302 470.491 130.302C487.995 130.302 499.189 138.036 502.038 155.132H534.806C531.346 119.108 502.445 104.25 470.084 104.25C427.14 104.25 396 134.779 396 178.538V180.166C396 223.314 422.459 254.25 470.084 254.25Z" fill="#17181A"/>
</svg>