<svg id="Layer_1" data-name="Layer 1" xmlns="http://www.w3.org/2000/svg" width="750" height="167.89" viewBox="0 0 750 167.89"><defs><style>.cls-1{fill:#e34b5f;}.cls-2{fill:#e7ce9c;}.cls-3{fill:#1e7889;}.cls-4{fill:#97baa6;}</style></defs><title>monzo-logo-freelogovectors.net</title><path class="cls-1" d="M183.27,414a9.56,9.56,0,0,1-2.41,4.83l-38.58,38.58a2.69,2.69,0,1,1-4.82-2.41v-84.4l45.81-45.82Z" transform="translate(0 -291.06)"/><path class="cls-2" d="M151.93,293.47a2.42,2.42,0,0,0-4.83,0L91.64,351.35v65.11l45.82-45.82,45.81-45.82Z" transform="translate(0 -291.06)"/><path class="cls-3" d="M0,414a9.72,9.72,0,0,0,2.41,4.83L41,457.45A2.69,2.69,0,1,0,45.82,455v-84.4L0,324.82Z" transform="translate(0 -291.06)"/><path class="cls-4" d="M36.17,293.47a2.41,2.41,0,0,0-4.82,0L0,324.82l45.82,45.82,45.82,45.82V351.35Z" transform="translate(0 -291.06)"/><path d="M241.15,414v-84.4h21.7v9.65A24.13,24.13,0,0,1,287,327.23a26.53,26.53,0,0,1,21.7,14.47c9.65-9.65,16.88-14.47,26.53-14.47,19.29,0,31.35,9.65,31.35,31.35V414H342.43V368.23c0-12.06-2.41-16.88-12.05-16.88s-14.47,4.82-14.47,16.88V414H289.38V368.23c0-12.06-2.41-16.88-9.64-16.88s-14.47,4.82-14.47,16.88V414Zm154.34-74.75a45.82,45.82,0,0,1,77.17,31.35,45.23,45.23,0,0,1-45.82,45.82A41,41,0,0,1,395.49,402a46.78,46.78,0,0,1,0-62.7Zm31.35,53a21.71,21.71,0,0,0,21.7-21.7,20.5,20.5,0,1,0-41,0A21.69,21.69,0,0,0,426.84,392.34Zm62.7,21.7v-84.4h24.11v9.65c4.83-7.24,12.06-12.06,24.12-12.06,16.88,0,28.94,12.06,28.94,31.35V414H542.59V368.23c0-12.06-2.41-16.88-12.06-16.88s-16.88,4.82-16.88,16.88V414Zm183.27-74.75A45.82,45.82,0,0,1,750,370.64a45.28,45.28,0,0,1-43.41,45.82A41,41,0,0,1,672.81,402a46.78,46.78,0,0,1,0-62.7Zm33.76,53a21.71,21.71,0,0,0,19.3-21.7,20.5,20.5,0,0,0-41,0A21.71,21.71,0,0,0,706.57,392.34ZM586,414V397.16l33.76-45.81H586V329.64h62.7v19.29l-31.35,43.41H648.7V414Z" transform="translate(0 -291.06)"/></svg>