<?xml version="1.0" encoding="UTF-8"?>
<svg width="743px" height="218px" viewBox="0 0 743 218" version="1.1" xmlns="http://www.w3.org/2000/svg" xmlns:xlink="http://www.w3.org/1999/xlink">
    <title>Zepz-logo-color</title>
    <defs>
        <linearGradient x1="100%" y1="24.6891937%" x2="0%" y2="75.3108063%" id="linearGradient-1">
            <stop stop-color="#EE6D06" offset="0%"></stop>
            <stop stop-color="#F6A000" offset="100%"></stop>
        </linearGradient>
        <linearGradient x1="100%" y1="22.7667936%" x2="0%" y2="77.2332064%" id="linearGradient-2">
            <stop stop-color="#6B23E6" offset="0%"></stop>
            <stop stop-color="#9718D0" offset="100%"></stop>
        </linearGradient>
    </defs>
    <g id="Zepz-logo-color" stroke="none" stroke-width="1" fill="none" fill-rule="evenodd">
        <g id="Zepz" transform="translate(27.000000, 36.000000)">
            <g id="Group" transform="translate(160.000000, 0.000000)">
                <polygon id="Path" fill="#3B1280" points="28.2929687 0.560546875 128.955078 0.560546875 59.1503906 118.271484 124.738281 118.271484 105.074219 152.228516 -7.15844484e-15 152.228516 70.4785156 33.9863281 9.49023438 33.9863281"></polygon>
                <polygon id="Path" fill="#3B1280" points="413.158203 0 513.820312 0 444.015625 117.710938 509.603516 117.710938 489.939453 151.667969 384.865234 151.667969 455.34375 33.4257812 394.355469 33.4257812"></polygon>
                <polygon id="Path-2" fill="#3A1181" points="251.732422 0.560546875 251.732422 32.9121094 179.982422 32.9121094 179.982422 58.8007813 238.205078 58.8007813 238.205078 92.4804688 179.982422 92.4804688 179.982422 118.828125 251.732422 118.828125 251.732422 151.667969 145.195312 152.228516 145.195312 0.560546875"></polygon>
                <path d="M304.420258,151.857422 L304.066248,102.4 L331.225383,102.4 C343.167698,102.4 353.536966,100.366667 362.333187,96.3 C371.129409,92.2333333 377.903141,86.3666667 382.654385,78.7 C387.405628,71.0333333 389.78125,62.0666667 389.78125,51.8 C389.78125,41.4 387.405628,32.4 382.654385,24.8 C377.903141,17.2 371.129409,11.3333333 362.333187,7.2 C353.536966,3.06666667 343.167698,1 331.225383,1 L272.862135,1 L272.78125,152.640625 L304.420258,151.857422 Z M328.752779,71 L305.265234,71 L305.265234,31 L328.752779,31 C337.412328,31 343.995958,32.7283951 348.503669,36.1851852 C353.011379,39.6419753 355.265234,44.6076818 355.265234,51.0823045 C355.265234,57.4471879 353.011379,62.3580247 348.503669,65.8148148 C343.995958,69.2716049 337.412328,71 328.752779,71 L328.752779,71 Z" id="P" fill="#3B1280" fill-rule="nonzero"></path>
            </g>
            <g id="Group-2" transform="translate(0.000000, 1.000000)">
                <polygon id="Path-5" fill="url(#linearGradient-1)" points="57.921875 0 134.269531 0 78.9199219 95.53125 0 95.53125"></polygon>
                <polygon id="Path-3" fill="url(#linearGradient-2)" points="78.4550781 32 170.416016 32 101.085938 151.865234 8 151.865234"></polygon>
                <polygon id="Path-4" fill="#D233B4" points="77.8300781 32 114.359375 32 77.8300781 95.7871094 41 95.7871094"></polygon>
            </g>
        </g>
    </g>
</svg>