<?xml version="1.0" encoding="UTF-8"?>
<svg width="196px" height="30px" viewBox="0 0 196 30" version="1.1" xmlns="http://www.w3.org/2000/svg" xmlns:xlink="http://www.w3.org/1999/xlink">
    <!-- Generator: Sketch 59.1 (86144) - https://sketch.com -->
    <title>Logo</title>
    <desc>Created with Sketch.</desc>
    <defs>
        <rect id="path-1" x="0" y="0" width="42.4242424" height="30"></rect>
    </defs>
    <g id="VIsual-Design" stroke="none" stroke-width="1" fill="none" fill-rule="evenodd">
        <g id="Landing_After-Mask" transform="translate(-137.000000, -26.000000)">
            <g id="Logo" transform="translate(137.000000, 26.000000)">
                <g id="logomark" transform="translate(0.000000, 0.000000)">
                    <mask id="mask-2" fill="white">
                        <use xlink:href="#path-1"></use>
                    </mask>
                    <g id="Mask"></g>
                    <path d="M15.0697282,7.94130091 L15.5450924,7.95692707 C15.3880084,7.94650963 15.2294753,7.94130091 15.0697282,7.94130091 Z M15.5450924,7.95692707 C14.291749,10.0335616 13.5704784,12.4674438 13.5704784,15.0697282 C13.5704784,17.6720126 14.291749,20.1058556 15.5450924,22.1824901 C15.7960901,22.5982478 16.0683926,22.9997892 16.3604725,23.385352 C16.7433722,23.8906762 17.1602265,24.368821 17.6078239,24.8164185 C17.713839,24.9225511 17.8217731,25.0269213 17.9313129,25.12949 C18.2998788,25.4751845 18.6876739,25.8005533 19.09274,26.1044214 C19.7555007,26.6014038 20.4645524,27.0401504 21.2122583,27.4129459 C21.6993715,27.6556018 22.2029334,27.8706475 22.720829,28.0554983 C24.1689707,28.5723757 25.7290803,28.8538032 27.3545534,28.8538032 C31.1609921,28.8538032 34.6072067,27.3106905 37.1014787,24.8164185 C39.5957116,22.322264 41.1385893,18.8761669 41.1385893,15.0697282 C41.1385893,11.2632503 39.5957116,7.81695741 37.1014787,5.32280288 C34.6072067,2.82853086 31.1609921,1.28565312 27.3545534,1.28565312 C25.7288453,1.28565312 24.1688923,1.56708066 22.720829,2.08395802 C23.4721379,2.52736501 24.1816596,3.03445154 24.8418355,3.59718914 C25.6513411,3.42091508 26.4920598,3.32774557 27.3545534,3.32774557 C30.5970405,3.32774557 33.5328005,4.64237954 35.65741,6.76687159 C37.7818629,8.89144196 39.0964969,11.827202 39.0964969,15.0697282 C39.0964969,18.3119802 37.7818629,21.2477794 35.65741,23.3725848 C33.5328005,25.4970376 30.5970405,26.8116716 27.3545534,26.8116716 C26.4920598,26.8116716 25.6513411,26.7185413 24.8416397,26.5422672 C24.3248406,26.4293594 23.820848,26.2826928 23.3317374,26.1044214 C22.5871646,25.8327455 21.8776429,25.4879518 21.2122583,25.0787343 C20.8087195,24.8305173 20.4211594,24.5586456 20.0519278,24.2649208 C19.7015728,23.9865871 19.3676272,23.6883977 19.0516968,23.3725848 C18.8550579,23.1759849 18.6654683,22.9724924 18.4832806,22.7624596 C18.1927671,22.4276133 17.9206605,22.0759267 17.668997,21.7094757 C16.3719082,19.8207859 15.6125708,17.5338053 15.6125708,15.0697282 C15.6125708,12.6054161 16.3716732,10.3184355 17.668762,8.42998069 C17.0038082,8.16954468 16.2902136,8.0059987 15.5450924,7.95692707 Z M21.2122583,1.30452984 C23.0881416,0.466239199 25.1668909,2.27373675e-13 27.3545534,2.27373675e-13 C31.5156942,2.27373675e-13 35.2837137,1.68684207 38.0105766,4.41370498 C40.7374004,7.14052872 42.4242424,10.9085874 42.4242424,15.0697282 C42.4242424,19.2310648 40.7374004,22.9986926 38.0105766,25.7255164 C35.2837137,28.4523401 31.51589,30.1394563 27.3545534,30.1394563 C25.1668909,30.1394563 23.0881416,29.673178 21.2122583,28.8349265 C19.3361008,29.673178 17.2573515,30.1394563 15.0697282,30.1394563 C10.9083524,30.1394563 7.1407637,28.4523401 4.41390079,25.7255164 C1.68707704,22.9986926 0,19.2310648 0,15.0697282 C0,10.9083524 1.68707704,7.14052872 4.41390079,4.41370498 C7.1407637,1.68684207 10.9083524,2.27373675e-13 15.0697282,2.27373675e-13 C17.2571557,2.27373675e-13 19.3361008,0.466239199 21.2122583,1.30452984 Z M19.7036876,28.0554983 C18.9525353,27.6118564 18.2430528,27.1049656 17.5828377,26.5422672 C16.7731363,26.7185413 15.9324176,26.8116716 15.0697282,26.8116716 C11.8274369,26.8116716 8.89167694,25.4970376 6.76687159,23.3725848 C4.64237954,21.2477794 3.32774557,18.3119802 3.32774557,15.0697282 C3.32774557,11.827202 4.64237954,8.89144196 6.76687159,6.76687159 C8.89167694,4.64237954 11.8274369,3.32774557 15.0697282,3.32774557 C15.9321826,3.32774557 16.7731363,3.42091508 17.5826419,3.59718914 C18.0994018,3.71009696 18.6036294,3.85672439 19.0925442,4.03503494 C19.8373128,4.30647584 20.5468345,4.65150459 21.2122583,5.06068285 C21.6157579,5.3088999 22.003318,5.5807716 22.3725497,5.87453558 C22.7227088,6.15283006 23.0566152,6.4510195 23.3725848,6.76687159 C23.5691846,6.9634714 23.7587742,7.16696396 23.9409619,7.37699679 C24.2317103,7.71180392 24.503582,8.06349044 24.7554804,8.42998069 C26.0525692,10.3184355 26.8116716,12.6054161 26.8116716,15.0697282 C26.8116716,17.5338053 26.0525692,19.8207859 24.7554804,21.7092407 C25.4204342,21.9699117 26.1342639,22.1334185 26.879385,22.1824901 C28.1325326,20.1060906 28.8538032,17.6720126 28.8538032,15.0697282 C28.8538032,12.4674438 28.1325326,10.0335616 26.879385,7.95692707 C26.6283873,7.54097356 26.3560848,7.13966713 26.0640049,6.75386937 C25.6811052,6.24854519 25.2642509,5.77040034 24.8166535,5.32280288 C24.7106384,5.21667031 24.6029393,5.11230009 24.4933604,5.00996636 C24.1247944,4.66427183 23.7370385,4.33886389 23.3319332,4.03503494 C22.6691726,3.53801338 21.959925,3.09930598 21.2122583,2.72639295 C20.7251059,2.4836196 20.221544,2.26880884 19.7036876,2.08395802 C18.2555067,1.56708066 16.6953972,1.28565312 15.0697282,1.28565312 C11.2632503,1.28565312 7.81727071,2.82853086 5.3229987,5.32280288 C2.82876584,7.81695741 1.28565312,11.2632503 1.28565312,15.0697282 C1.28565312,18.8759319 2.82876584,22.322264 5.3229987,24.8164185 C7.81727071,27.3106905 11.2634853,28.8538032 15.0697282,28.8538032 C16.6953972,28.8538032 18.2555067,28.5723757 19.7036876,28.0554983 Z M16.4200791,25.4395459 C15.8442609,24.8325146 15.3181802,24.1775474 14.8489254,23.481028 C12.6132096,23.4233012 10.5944193,22.4936818 9.12015569,21.0193007 C7.59748622,19.4966312 6.65560863,17.3932482 6.65560863,15.0697282 C6.65560863,12.746404 7.59768204,10.6423552 9.12015569,9.12015569 C10.5944193,7.64577458 12.6130921,6.71611594 14.8489254,6.65838922 C14.9221608,6.65639189 14.9960228,6.65560863 15.0697282,6.65560863 C15.5086705,6.65560863 15.9397411,6.68924991 16.3604725,6.75410435 C17.1046146,6.86865703 17.8167602,7.08080468 18.4832806,7.37699679 C18.8881508,7.5568347 19.2760243,7.76776829 19.6442769,8.00666448 C20.1412984,8.32929182 20.6020939,8.70283147 21.0194181,9.12015569 C21.0847034,9.18540176 21.1490879,9.25182274 21.2122583,9.31930112 C21.5086462,9.63581899 21.7808704,9.97516906 22.025876,10.3346491 C22.9458222,11.6835509 23.483926,13.314037 23.483926,15.0697282 C23.483926,16.8256152 22.9460572,18.4558662 22.025876,19.8048073 C22.1188889,19.9093733 22.2150348,20.0112762 22.3139613,20.1102028 C22.699485,20.4957655 23.1289106,20.8373479 23.5940533,21.1267648 C24.8104265,19.4177171 25.525901,17.3271797 25.525901,15.0697282 C25.525901,12.8122375 24.8104265,10.7217392 23.5940533,9.01269157 C23.3434864,8.66053509 23.0713797,8.3245139 22.7799656,8.00666448 C22.6769661,7.89399163 22.5712643,7.78374692 22.4634869,7.67596949 C22.0756134,7.28805691 21.6570752,6.93026092 21.2122583,6.60677198 C20.8429874,6.33834666 20.4554665,6.09369346 20.0519278,5.87453558 C19.3854074,5.51262744 18.6750241,5.22097827 17.9311171,5.00996636 C17.4409882,4.87085829 16.9362907,4.76648807 16.4198833,4.69991044 C15.9779253,4.6428495 15.5273123,4.61351618 15.0697282,4.61351618 C12.1823349,4.61351618 9.56818395,5.78406834 7.67596949,7.67596949 C5.78406834,9.56787064 4.61351618,12.1823349 4.61351618,15.0697282 C4.61351618,17.9570823 5.78406834,20.5713507 7.67596949,22.4634869 C9.56818395,24.355388 12.1823349,25.525901 15.0697282,25.525901 C15.5273123,25.525901 15.9779253,25.4966068 16.4200791,25.4395459 Z M14.0344069,22.1234318 C12.9174693,20.0189522 12.2848252,17.618163 12.2848252,15.0697282 C12.2848252,12.5212933 12.9174693,10.1205041 14.0341719,8.01598534 C12.480211,8.24223178 11.0886603,8.96972942 10.0292144,10.0291361 C8.73937083,11.3187839 7.94137924,13.1012236 7.94137924,15.0697282 C7.94137924,17.0379978 8.73937083,18.8204375 10.0292144,20.1102028 C11.0886603,21.1697269 12.480211,21.8971854 14.0344069,22.1234318 Z M28.3900705,22.1234318 C29.9442664,21.8971854 31.3358563,21.1697269 32.395028,20.1102028 C33.6849108,18.8204375 34.4829807,17.0379978 34.4829807,15.0697282 C34.4829807,13.1012236 33.6849108,11.3187839 32.395028,10.0291361 C31.3358563,8.96972942 29.9442664,8.24223178 28.3900705,8.01598534 C29.5068906,10.1205041 30.1395347,12.5214891 30.1395347,15.0697282 C30.1395347,17.618163 29.5068906,20.0189522 28.3900705,22.1234318 Z M27.575552,6.65838922 C29.811072,6.71611594 31.8302931,7.6459704 33.3041259,9.12015569 C34.8265604,10.6423552 35.7686338,12.746404 35.7686338,15.0697282 C35.7686338,17.3932482 34.8267954,19.4966312 33.3041259,21.0193007 C31.8302931,22.4934468 29.811072,23.4233012 27.5753562,23.481028 C27.5020816,23.4830253 27.4284546,23.4838086 27.3545534,23.4838086 C26.9155719,23.4838086 26.4847363,23.4501673 26.0637699,23.3855478 C25.319667,23.2707602 24.6074822,23.0588475 23.9409619,22.7624596 C23.5362091,22.5825825 23.1482182,22.3716881 22.7799656,22.1327527 C22.2829832,21.8101645 21.8221485,21.4365857 21.4049418,21.0193007 C21.3395782,20.9540154 21.2753895,20.8876336 21.2122583,20.8201552 C20.9155962,20.5036374 20.6434112,20.1642873 20.3984055,19.8048073 C19.4781853,18.4558662 18.9404339,16.8256152 18.9404339,15.0697282 C18.9404339,13.314037 19.4784202,11.6835509 20.3984055,10.3346491 C20.3053535,10.2298481 20.2092076,10.1281409 20.1103202,10.0291361 C19.7249924,9.64369081 19.2953709,9.30210843 18.8302283,9.01269157 C17.6138159,10.7217392 16.8983414,12.8122375 16.8983414,15.0697282 C16.8983414,17.3271797 17.6138159,19.4177171 18.8302283,21.1267648 C19.080991,21.4788821 19.3528627,21.8149425 19.6442769,22.1327527 C19.7473155,22.2454647 19.8529781,22.3556703 19.9607947,22.4634869 C20.348864,22.8513603 20.7672848,23.2091563 21.2122583,23.5326452 C21.58149,23.8011097 21.9690109,24.0459979 22.3725497,24.2649208 C23.03907,24.6268289 23.7492575,24.9184389 24.4931645,25.12949 C24.9830584,25.2685981 25.4879518,25.3729291 26.0043983,25.4395459 C26.4463171,25.4966068 26.8969301,25.525901 27.3545534,25.525901 C30.2419076,25.525901 32.8562935,24.355388 34.7483121,22.4634869 C36.6402132,20.5713507 37.8107262,17.9570823 37.8107262,15.0697282 C37.8107262,12.1823349 36.6402132,9.56787064 34.7483121,7.67596949 C32.8562935,5.78406834 30.2419076,4.61351618 27.3545534,4.61351618 C26.8971651,4.61351618 26.4465521,4.6428495 26.0045941,4.69991044 C26.5804514,5.30690258 27.1062972,5.96190893 27.575552,6.65838922 Z M21.2122583,11.4500985 C20.5856845,12.5108367 20.226087,13.7484364 20.226087,15.0697282 C20.226087,16.3907849 20.5856845,17.6283847 21.2122583,18.6891229 C21.8385971,17.6281497 22.1981554,16.3907849 22.1981554,15.0697282 C22.1981554,13.7484364 21.8385971,12.5110717 21.2122583,11.4500985 Z" fill="#0079C9" mask="url(#mask-2)"></path>
                </g>
                <path d="M51.3,8.39415042 L51.3,7.21587744 C51.3,6.87325734 51.4149014,6.58913762 51.6447075,6.36350975 C51.8745137,6.13788188 52.1523661,6.02506964 52.478273,6.02506964 L67.1189415,6.02506964 C67.4448484,6.02506964 67.7227008,6.13788188 67.952507,6.36350975 C68.1823131,6.58913762 68.2972145,6.87325734 68.2972145,7.21587744 L68.2972145,8.61977716 C68.2972145,8.96239726 68.2240954,9.29247752 68.0778552,9.61002786 C67.9316149,9.92757819 67.7958224,10.1532027 67.6704735,10.2869081 L67.1189415,10.8509749 L57.254039,20.4526462 L67.2442897,20.4526462 C67.5869098,20.4526462 67.8689404,20.5654585 68.09039,20.7910864 C68.3118395,21.0167142 68.4225627,21.3008339 68.4225627,21.643454 L68.4225627,22.821727 C68.4225627,23.1643471 68.3118395,23.4463777 68.09039,23.6678273 C67.8689404,23.8892769 67.5869098,24 67.2442897,24 L52.6913649,24 C52.365458,24 52.0876056,23.8892769 51.8577994,23.6678273 C51.6279933,23.4463777 51.5130919,23.1643471 51.5130919,22.821727 L51.5130919,21.4303621 C51.5130919,20.6281297 51.9058457,19.8342658 52.6913649,19.0487465 L62.2428969,9.5724234 L52.478273,9.5724234 C52.1523661,9.5724234 51.8745137,9.46170027 51.6447075,9.2402507 C51.4149014,9.01880112 51.3,8.73677052 51.3,8.39415042 Z M70.8543175,22.7966574 L70.8543175,7.1908078 C70.8543175,6.86490088 70.971308,6.58913762 71.2052925,6.36350975 C71.4392769,6.13788188 71.7192184,6.02506964 72.0451253,6.02506964 L86.4977716,6.02506964 C86.8236785,6.02506964 87.1015309,6.14206011 87.331337,6.37604457 C87.5611432,6.61002903 87.6760446,6.88997052 87.6760446,7.21587744 L87.6760446,8.39415042 C87.6760446,8.72005734 87.5611432,8.99790971 87.331337,9.22771588 C87.1015309,9.45752204 86.8236785,9.5724234 86.4977716,9.5724234 L75.5799443,9.5724234 L75.5799443,13.2200557 L84.9810585,13.2200557 C85.3069654,13.2200557 85.5848178,13.3349571 85.814624,13.5647632 C86.0444301,13.7945694 86.1593315,14.0724218 86.1593315,14.3983287 L86.1593315,15.5766017 C86.1593315,15.9025086 86.0444301,16.180361 85.814624,16.4101671 C85.5848178,16.6399733 85.3069654,16.7548747 84.9810585,16.7548747 L75.5799443,16.7548747 L75.5799443,20.4526462 L86.4727019,20.4526462 C86.7902523,20.4526462 87.0618373,20.5654585 87.2874652,20.7910864 C87.5130931,21.0167142 87.6259053,21.2924775 87.6259053,21.6183844 L87.6259053,22.821727 C87.6259053,23.1476339 87.5089148,23.4254863 87.2749304,23.6552925 C87.0409459,23.8850986 86.7610044,24 86.4350975,24 L72.0451253,24 C71.7192184,24 71.4392769,23.8850986 71.2052925,23.6552925 C70.971308,23.4254863 70.8543175,23.1392775 70.8543175,22.7966574 Z M88.4406685,8.39415042 L88.4406685,7.21587744 C88.4406685,6.87325734 88.5534808,6.58913762 88.7791086,6.36350975 C89.0047365,6.13788188 89.2888562,6.02506964 89.6314763,6.02506964 L105.538162,6.02506964 C105.880782,6.02506964 106.164901,6.13788188 106.390529,6.36350975 C106.616157,6.58913762 106.728969,6.87325734 106.728969,7.21587744 L106.728969,8.39415042 C106.728969,8.73677052 106.616157,9.01880112 106.390529,9.2402507 C106.164901,9.46170027 105.880782,9.5724234 105.538162,9.5724234 L99.9476323,9.5724234 L99.9476323,22.8467967 C99.9476323,23.1727036 99.832731,23.4463777 99.6029248,23.6678273 C99.3731186,23.8892769 99.0952663,24 98.7693593,24 L96.4002786,24 C96.0743716,24 95.7965193,23.8892769 95.5667131,23.6678273 C95.3369069,23.4463777 95.2220056,23.1727036 95.2220056,22.8467967 L95.2220056,9.5724234 L89.6314763,9.5724234 C89.2888562,9.5724234 89.0047365,9.46170027 88.7791086,9.2402507 C88.5534808,9.01880112 88.4406685,8.73677052 88.4406685,8.39415042 Z M107.293036,7.07799443 C107.251253,6.97771538 107.230362,6.86281402 107.230362,6.73328691 C107.230362,6.6037598 107.303481,6.45334347 107.449721,6.28203343 C107.595962,6.11072338 107.815319,6.02506964 108.107799,6.02506964 L110.852925,6.02506964 C111.178832,6.02506964 111.479664,6.13788188 111.755432,6.36350975 C112.031199,6.58913762 112.227576,6.87325734 112.344568,7.21587744 L115.65376,17.143454 L118.712256,7.21587744 C118.954597,6.4220016 119.451807,6.02506964 120.2039,6.02506964 L122.510306,6.02506964 C123.262399,6.02506964 123.759609,6.4220016 124.00195,7.21587744 L127.060446,17.143454 L130.369638,7.21587744 C130.48663,6.87325734 130.683007,6.58913762 130.958774,6.36350975 C131.234542,6.13788188 131.535374,6.02506964 131.861281,6.02506964 L134.606407,6.02506964 C134.890531,6.02506964 135.10571,6.11072338 135.25195,6.28203343 C135.39819,6.45334347 135.471309,6.6037598 135.471309,6.73328691 C135.471309,6.86281402 135.454596,6.97771538 135.42117,7.07799443 L129.830641,22.7214485 C129.521447,23.5738204 128.919782,24 128.025627,24 L126.208078,24 C125.280497,24 124.68301,23.5738204 124.415599,22.7214485 L121.357103,13.0696379 L118.298607,22.7214485 C118.02284,23.5738204 117.425353,24 116.506128,24 L114.676045,24 C113.790246,24 113.192759,23.5738204 112.883565,22.7214485 L107.293036,7.07799443 Z M137.527019,22.7966574 L137.527019,7.1908078 C137.527019,6.86490088 137.64401,6.58913762 137.877994,6.36350975 C138.111979,6.13788188 138.39192,6.02506964 138.717827,6.02506964 L153.170474,6.02506964 C153.49638,6.02506964 153.774233,6.14206011 154.004039,6.37604457 C154.233845,6.61002903 154.348747,6.88997052 154.348747,7.21587744 L154.348747,8.39415042 C154.348747,8.72005734 154.233845,8.99790971 154.004039,9.22771588 C153.774233,9.45752204 153.49638,9.5724234 153.170474,9.5724234 L142.252646,9.5724234 L142.252646,13.2200557 L151.65376,13.2200557 C151.979667,13.2200557 152.25752,13.3349571 152.487326,13.5647632 C152.717132,13.7945694 152.832033,14.0724218 152.832033,14.3983287 L152.832033,15.5766017 C152.832033,15.9025086 152.717132,16.180361 152.487326,16.4101671 C152.25752,16.6399733 151.979667,16.7548747 151.65376,16.7548747 L142.252646,16.7548747 L142.252646,20.4526462 L153.145404,20.4526462 C153.462954,20.4526462 153.734539,20.5654585 153.960167,20.7910864 C154.185795,21.0167142 154.298607,21.2924775 154.298607,21.6183844 L154.298607,22.821727 C154.298607,23.1476339 154.181617,23.4254863 153.947632,23.6552925 C153.713648,23.8850986 153.433706,24 153.107799,24 L138.717827,24 C138.39192,24 138.111979,23.8850986 137.877994,23.6552925 C137.64401,23.4254863 137.527019,23.1392775 137.527019,22.7966574 Z M175.319499,23.4610028 C175.319499,23.8203361 175.106409,24 174.680223,24 L171.671866,24 C171.354316,24 171.005434,23.8850986 170.625209,23.6552925 C170.244984,23.4254863 169.954597,23.1476339 169.754039,22.821727 L167.62312,19.4874652 C166.745678,18.1169848 165.684407,17.4317549 164.439276,17.4317549 L161.38078,17.4317549 L161.38078,22.821727 C161.38078,23.1476339 161.265879,23.4254863 161.036072,23.6552925 C160.806266,23.8850986 160.528414,24 160.202507,24 L157.845961,24 C157.520054,24 157.240113,23.8850986 157.006128,23.6552925 C156.772144,23.4254863 156.655153,23.1476339 156.655153,22.821727 L156.655153,7.21587744 C156.655153,6.88997052 156.767965,6.61002903 156.993593,6.37604457 C157.219221,6.14206011 157.494984,6.02506964 157.820891,6.02506964 L168.162117,6.02506964 C170.075776,6.02506964 171.644701,6.53899208 172.868942,7.56685237 C174.093182,8.59471266 174.705292,9.98188542 174.705292,11.7284123 C174.705292,14.1601793 173.130099,15.6852337 169.979666,16.3036212 C170.481061,16.4874661 170.944845,16.8029226 171.371031,17.25 C171.797217,17.6970774 172.28607,18.3467924 172.837604,19.1991643 L175.118942,22.821727 C175.252647,23.0557115 175.319499,23.2688013 175.319499,23.4610028 Z M161.38078,13.8844011 L166.720613,13.8844011 C167.581341,13.8844011 168.33969,13.7130936 168.995682,13.3704735 C169.651675,13.0278534 169.979666,12.4805052 169.979666,11.7284123 C169.979666,10.9763194 169.651675,10.4289711 168.995682,10.086351 C168.33969,9.74373088 167.581341,9.5724234 166.720613,9.5724234 L161.38078,9.5724234 L161.38078,13.8844011 Z M196.00195,23.448468 C196.00195,23.8161578 195.784682,24 195.350139,24 L192.479666,24 C192.153759,24 191.802787,23.8850986 191.426741,23.6552925 C191.050694,23.4254863 190.758218,23.1476339 190.549304,22.821727 L188.343175,19.3245125 C187.81671,18.4721406 187.286075,17.8307821 186.751253,17.4004178 C186.216432,16.9700536 185.572984,16.7548747 184.820891,16.7548747 L182.125905,16.7548747 L182.125905,22.8467967 C182.125905,23.1727036 182.011004,23.4463777 181.781198,23.6678273 C181.551392,23.8892769 181.273539,24 180.947632,24 L178.591086,24 C178.265179,24 177.985238,23.8809204 177.751253,23.6427577 C177.517269,23.4045949 177.400279,23.1225643 177.400279,22.7966574 L177.400279,7.21587744 C177.400279,6.88997052 177.517269,6.60585079 177.751253,6.36350975 C177.985238,6.1211687 178.265179,6 178.591086,6 L180.947632,6 C181.273539,6 181.551392,6.1211687 181.781198,6.36350975 C182.011004,6.60585079 182.125905,6.88997052 182.125905,7.21587744 L182.125905,13.2200557 L184.820891,13.2200557 C185.556271,13.2200557 186.201808,13.0195006 186.757521,12.6183844 C187.313234,12.2172682 187.84178,11.5696424 188.343175,10.6754875 L190.286072,7.21587744 C190.728972,6.41364501 191.330637,6.00835659 192.091086,6 L194.98663,6 C195.387746,6 195.588301,6.17548571 195.588301,6.5264624 C195.588301,6.71866391 195.517271,6.94846663 195.375209,7.21587744 L192.655153,12.1420613 C192.262394,12.8607278 191.82159,13.4540367 191.33273,13.9220056 C190.843869,14.3899745 190.206689,14.7200547 189.42117,14.9122563 C189.972705,15.0292485 190.538855,15.3760417 191.119638,15.9526462 C191.700421,16.5292508 192.212254,17.1559855 192.655153,17.8328691 L195.788858,22.821727 C195.93092,23.0640681 196.00195,23.2729796 196.00195,23.448468 Z" id="Zetwerk" fill="#0079C9"></path>
            </g>
        </g>
    </g>
</svg>